<?xml version="1.0" encoding="UTF-8" standalone="no"?>
<!DOCTYPE svg PUBLIC "-//W3C//DTD SVG 1.1//EN"
 "http://www.w3.org/Graphics/SVG/1.1/DTD/svg11.dtd">
<!-- Generated by graphviz version 9.0.0 (20230911.1827)
 -->
<!-- Pages: 1 -->
<svg width="818pt" height="689pt"
 viewBox="0.00 0.00 818.41 689.30" xmlns="http://www.w3.org/2000/svg" xmlns:xlink="http://www.w3.org/1999/xlink">
<g id="graph0" class="graph" transform="scale(1 1) rotate(0) translate(4 685.3)">
<polygon fill="white" stroke="none" points="-4,4 -4,-685.3 814.41,-685.3 814.41,4 -4,4"/>
<!-- wan1 -->
<g id="node1" class="node">
<title>wan1</title>
<ellipse fill="none" stroke="black" cx="429.01" cy="-190.96" rx="38.06" ry="18"/>
<text text-anchor="middle" x="429.01" y="-186.29" font-family="Times,serif" font-size="14.00">wan1</text>
</g>
<!-- isprouter111 -->
<g id="node7" class="node">
<title>isprouter111</title>
<polygon fill="none" stroke="black" points="310.67,-208.96 201.67,-208.96 201.67,-172.96 310.67,-172.96 310.67,-208.96"/>
<text text-anchor="middle" x="256.17" y="-186.29" font-family="Times,serif" font-size="14.00">isprouter111</text>
</g>
<!-- wan1&#45;&#45;isprouter111 -->
<g id="edge1" class="edge">
<title>wan1&#45;&#45;isprouter111</title>
<path fill="none" stroke="black" d="M390.65,-190.96C367.28,-190.96 337.03,-190.96 311.15,-190.96"/>
</g>
<!-- router -->
<g id="node9" class="node">
<title>router</title>
<polygon fill="none" stroke="black" points="545.93,-358.65 484.93,-358.65 484.93,-322.65 545.93,-322.65 545.93,-358.65"/>
<text text-anchor="middle" x="515.43" y="-335.98" font-family="Times,serif" font-size="14.00">router</text>
</g>
<!-- wan1&#45;&#45;router -->
<g id="edge2" class="edge">
<title>wan1&#45;&#45;router</title>
<path fill="none" stroke="black" d="M439.27,-208.72C455.81,-237.38 488.22,-293.51 504.93,-322.45"/>
</g>
<!-- wan2 -->
<g id="node2" class="node">
<title>wan2</title>
<ellipse fill="none" stroke="black" cx="429.01" cy="-490.34" rx="38.06" ry="18"/>
<text text-anchor="middle" x="429.01" y="-485.66" font-family="Times,serif" font-size="14.00">wan2</text>
</g>
<!-- isprouter222 -->
<g id="node8" class="node">
<title>isprouter222</title>
<polygon fill="none" stroke="black" points="310.67,-508.34 201.67,-508.34 201.67,-472.34 310.67,-472.34 310.67,-508.34"/>
<text text-anchor="middle" x="256.17" y="-485.66" font-family="Times,serif" font-size="14.00">isprouter222</text>
</g>
<!-- wan2&#45;&#45;isprouter222 -->
<g id="edge3" class="edge">
<title>wan2&#45;&#45;isprouter222</title>
<path fill="none" stroke="black" d="M390.65,-490.34C367.28,-490.34 337.03,-490.34 311.15,-490.34"/>
</g>
<!-- wan2&#45;&#45;router -->
<g id="edge4" class="edge">
<title>wan2&#45;&#45;router</title>
<path fill="none" stroke="black" d="M439.27,-472.58C455.81,-443.92 488.22,-387.79 504.93,-358.85"/>
</g>
<!-- internet -->
<g id="node3" class="node">
<title>internet</title>
<ellipse fill="none" stroke="black" cx="169.75" cy="-340.65" rx="51.73" ry="18"/>
<text text-anchor="middle" x="169.75" y="-335.98" font-family="Times,serif" font-size="14.00">internet</text>
</g>
<!-- remotehost -->
<g id="node6" class="node">
<title>remotehost</title>
<polygon fill="none" stroke="black" points="97.75,-358.65 0,-358.65 0,-322.65 97.75,-322.65 97.75,-358.65"/>
<text text-anchor="middle" x="48.88" y="-335.98" font-family="Times,serif" font-size="14.00">remotehost</text>
</g>
<!-- internet&#45;&#45;remotehost -->
<g id="edge5" class="edge">
<title>internet&#45;&#45;remotehost</title>
<path fill="none" stroke="black" d="M117.79,-340.65C111.26,-340.65 104.6,-340.65 98.12,-340.65"/>
</g>
<!-- internet&#45;&#45;isprouter111 -->
<g id="edge6" class="edge">
<title>internet&#45;&#45;isprouter111</title>
<path fill="none" stroke="black" d="M180.17,-322.59C196.78,-293.82 229.08,-237.89 245.71,-209.08"/>
</g>
<!-- internet&#45;&#45;isprouter222 -->
<g id="edge7" class="edge">
<title>internet&#45;&#45;isprouter222</title>
<path fill="none" stroke="black" d="M180.17,-358.71C196.78,-387.48 229.08,-443.41 245.71,-472.22"/>
</g>
<!-- lan1 -->
<g id="node4" class="node">
<title>lan1</title>
<ellipse fill="none" stroke="black" cx="709.43" cy="-139.99" rx="32.79" ry="18"/>
<text text-anchor="middle" x="709.43" y="-135.31" font-family="Times,serif" font-size="14.00">lan1</text>
</g>
<!-- lan1&#45;&#45;router -->
<g id="edge8" class="edge">
<title>lan1&#45;&#45;router</title>
<path fill="none" stroke="black" d="M693.89,-156.07C658.28,-192.9 571,-283.17 533.28,-322.19"/>
</g>
<!-- node00 -->
<g id="node10" class="node">
<title>node00</title>
<polygon fill="none" stroke="black" points="676.96,-36 608.46,-36 608.46,0 676.96,0 676.96,-36"/>
<text text-anchor="middle" x="642.71" y="-13.32" font-family="Times,serif" font-size="14.00">node00</text>
</g>
<!-- lan1&#45;&#45;node00 -->
<g id="edge9" class="edge">
<title>lan1&#45;&#45;node00</title>
<path fill="none" stroke="black" d="M699.87,-122.51C687.33,-99.58 665.43,-59.54 652.68,-36.24"/>
</g>
<!-- node01 -->
<g id="node11" class="node">
<title>node01</title>
<polygon fill="none" stroke="black" points="810.41,-279.97 741.91,-279.97 741.91,-243.97 810.41,-243.97 810.41,-279.97"/>
<text text-anchor="middle" x="776.16" y="-257.3" font-family="Times,serif" font-size="14.00">node01</text>
</g>
<!-- lan1&#45;&#45;node01 -->
<g id="edge10" class="edge">
<title>lan1&#45;&#45;node01</title>
<path fill="none" stroke="black" d="M718.99,-157.46C731.53,-180.39 753.44,-220.43 766.18,-243.73"/>
</g>
<!-- lan2 -->
<g id="node5" class="node">
<title>lan2</title>
<ellipse fill="none" stroke="black" cx="709.43" cy="-541.31" rx="32.79" ry="18"/>
<text text-anchor="middle" x="709.43" y="-536.64" font-family="Times,serif" font-size="14.00">lan2</text>
</g>
<!-- lan2&#45;&#45;router -->
<g id="edge11" class="edge">
<title>lan2&#45;&#45;router</title>
<path fill="none" stroke="black" d="M693.89,-525.23C658.28,-488.4 571,-398.13 533.28,-359.11"/>
</g>
<!-- node10 -->
<g id="node12" class="node">
<title>node10</title>
<polygon fill="none" stroke="black" points="810.41,-437.33 741.91,-437.33 741.91,-401.33 810.41,-401.33 810.41,-437.33"/>
<text text-anchor="middle" x="776.16" y="-414.65" font-family="Times,serif" font-size="14.00">node10</text>
</g>
<!-- lan2&#45;&#45;node10 -->
<g id="edge12" class="edge">
<title>lan2&#45;&#45;node10</title>
<path fill="none" stroke="black" d="M718.99,-523.84C731.53,-500.91 753.44,-460.87 766.18,-437.57"/>
</g>
<!-- node11 -->
<g id="node13" class="node">
<title>node11</title>
<polygon fill="none" stroke="black" points="676.96,-681.3 608.46,-681.3 608.46,-645.3 676.96,-645.3 676.96,-681.3"/>
<text text-anchor="middle" x="642.71" y="-658.63" font-family="Times,serif" font-size="14.00">node11</text>
</g>
<!-- lan2&#45;&#45;node11 -->
<g id="edge13" class="edge">
<title>lan2&#45;&#45;node11</title>
<path fill="none" stroke="black" d="M699.87,-558.79C687.33,-581.72 665.43,-621.76 652.68,-645.06"/>
</g>
</g>
</svg>
